{
	"asset":{
		"generator":"Khronos glTF Blender I/O v5.1.20",
		"version":"2.0"
	},
	"scene":0,
	"scenes":[
		{
			"name":"Scene",
			"nodes":[
				6,
				7,
				9,
				12,
				15,
				17
			]
		}
	],
	"nodes":[
		{
			"mesh":0,
			"name":"oversize_cuello"
		},
		{
			"mesh":1,
			"name":"oversize_espalda"
		},
		{
			"mesh":2,
			"name":"oversize_mangder"
		},
		{
			"mesh":3,
			"name":"oversize_mangiz"
		},
		{
			"mesh":4,
			"name":"oversize_pecho"
		},
		{
			"children":[
				0,
				1,
				2,
				3,
				4
			],
			"name":"Cloth"
		},
		{
			"children":[
				5
			],
			"name":"glb_Scene_Node"
		},
		{
			"mesh":5,
			"name":"env_sphere",
			"scale":[
				64.93695831298828,
				64.93695831298828,
				64.93695831298828
			],
			"translation":[
				0,
				-200.802490234375,
				0
			]
		},
		{
			"mesh":6,
			"name":"tshirt_static",
			"rotation":[
				0.70710688829422,
				0,
				0,
				0.7071066498756409
			],
			"scale":[
				0.009999999776482582,
				0.010000000707805157,
				0.010000000707805157
			],
			"translation":[
				0,
				-0.4274454116821289,
				0
			]
		},
		{
			"children":[
				8
			],
			"name":"tshirt_pivot"
		},
		{
			"mesh":7,
			"name":"camrotate_bg",
			"rotation":[
				0.7071069478988647,
				0,
				0,
				0.7071066498756409
			],
			"scale":[
				15.693794250488281,
				15.693794250488281,
				15.693794250488281
			],
			"translation":[
				-0.2818117141723633,
				-0.46581506729125977,
				-16.577970504760742
			]
		},
		{
			"children":[
				10
			],
			"name":"v3d_Proxy_Node_0_camrotate_bg"
		},
		{
			"children":[
				11
			],
			"name":"camrotateaxis"
		},
		{
			"mesh":8,
			"name":"camrotatezoom_bg",
			"rotation":[
				0.7071069478988647,
				0,
				0,
				0.7071066498756409
			],
			"scale":[
				15.693794250488281,
				15.693794250488281,
				15.693794250488281
			],
			"translation":[
				-0.2818117141723633,
				-0.46581506729125977,
				-16.577970504760742
			]
		},
		{
			"children":[
				13
			],
			"name":"v3d_Proxy_Node_0_camrotatezoom_bg"
		},
		{
			"children":[
				14
			],
			"name":"camrotatezoomaxis"
		},
		{
			"mesh":9,
			"name":"cameradefault_bg",
			"rotation":[
				0.70710688829422,
				0,
				0,
				0.7071066498756409
			],
			"translation":[
				-0.2818117141723633,
				-0.46581506729125977,
				-16.577970504760742
			]
		},
		{
			"children":[
				16
			],
			"name":"v3d_Proxy_Node_0_cameradefault_bg",
			"translation":[
				0,
				3.752298653125763e-06,
				0
			]
		}
	],
	"animations":[
		{
			"channels":[
				{
					"sampler":0,
					"target":{
						"node":12,
						"path":"rotation"
					}
				}
			],
			"name":"camrotateaxis",
			"samplers":[
				{
					"input":38,
					"interpolation":"LINEAR",
					"output":39
				}
			]
		},
		{
			"channels":[
				{
					"sampler":0,
					"target":{
						"node":15,
						"path":"rotation"
					}
				}
			],
			"name":"camrotatezoomaxis",
			"samplers":[
				{
					"input":38,
					"interpolation":"LINEAR",
					"output":39
				}
			]
		}
	],
	"materials":[
		{
			"doubleSided":true,
			"name":"Material.001",
			"normalTexture":{
				"index":0
			},
			"pbrMetallicRoughness":{
				"baseColorFactor":[
					0.49354317784309387,
					0.4999343752861023,
					0.48720037937164307,
					1
				],
				"baseColorTexture":{
					"index":1
				},
				"metallicFactor":0,
				"roughnessFactor":0.5
			}
		},
		{
			"name":"env_sphere"
		},
		{
			"doubleSided":true,
			"name":"Base"
		},
		{
			"name":"camera_bg"
		}
	],
	"meshes":[
		{
			"name":"4",
			"primitives":[
				{
					"attributes":{
						"POSITION":0,
						"NORMAL":1,
						"TEXCOORD_0":2
					},
					"indices":3,
					"material":0
				}
			]
		},
		{
			"name":"2",
			"primitives":[
				{
					"attributes":{
						"POSITION":4,
						"NORMAL":5,
						"TEXCOORD_0":6
					},
					"indices":7,
					"material":0
				}
			]
		},
		{
			"name":"5",
			"primitives":[
				{
					"attributes":{
						"POSITION":8,
						"NORMAL":9,
						"TEXCOORD_0":10
					},
					"indices":11,
					"material":0
				}
			]
		},
		{
			"name":"1",
			"primitives":[
				{
					"attributes":{
						"POSITION":12,
						"NORMAL":13,
						"TEXCOORD_0":14
					},
					"indices":15,
					"material":0
				}
			]
		},
		{
			"name":"3",
			"primitives":[
				{
					"attributes":{
						"POSITION":16,
						"NORMAL":17,
						"TEXCOORD_0":18
					},
					"indices":19,
					"material":0
				}
			]
		},
		{
			"name":"Plane.017",
			"primitives":[
				{
					"attributes":{
						"POSITION":20,
						"NORMAL":21,
						"TEXCOORD_0":22
					},
					"indices":23,
					"material":1
				}
			]
		},
		{
			"name":"Mesh.001",
			"primitives":[
				{
					"attributes":{
						"POSITION":24,
						"NORMAL":25,
						"TEXCOORD_0":26
					},
					"indices":27,
					"material":2
				}
			]
		},
		{
			"name":"Plane.003",
			"primitives":[
				{
					"attributes":{
						"POSITION":28,
						"NORMAL":29,
						"TEXCOORD_0":30
					},
					"indices":31,
					"material":3
				}
			]
		},
		{
			"name":"Plane.004",
			"primitives":[
				{
					"attributes":{
						"POSITION":32,
						"NORMAL":33,
						"TEXCOORD_0":34
					},
					"indices":31,
					"material":3
				}
			]
		},
		{
			"name":"Plane.002",
			"primitives":[
				{
					"attributes":{
						"POSITION":35,
						"NORMAL":36,
						"TEXCOORD_0":37
					},
					"indices":31,
					"material":3
				}
			]
		}
	],
	"textures":[
		{
			"sampler":0,
			"source":0
		},
		{
			"sampler":0,
			"source":1
		}
	],
	"images":[
		{
			"mimeType":"image/jpeg",
			"name":"normaldetailsv2",
			"uri":"normaldetailsv2.jpg"
		},
		{
			"mimeType":"image/jpeg",
			"name":"ao_tshirt_outside",
			"uri":"ao_tshirt_outside.jpg"
		}
	],
	"accessors":[
		{
			"bufferView":0,
			"componentType":5126,
			"count":1559,
			"max":[
				0.08780262619256973,
				1.6462336778640747,
				0.04392284154891968
			],
			"min":[
				-0.08848677575588226,
				1.571071743965149,
				-0.080743707716465
			],
			"type":"VEC3"
		},
		{
			"bufferView":1,
			"componentType":5126,
			"count":1559,
			"type":"VEC3"
		},
		{
			"bufferView":2,
			"componentType":5126,
			"count":1559,
			"type":"VEC2"
		},
		{
			"bufferView":3,
			"componentType":5123,
			"count":7266,
			"type":"SCALAR"
		},
		{
			"bufferView":4,
			"componentType":5126,
			"count":21268,
			"max":[
				0.19059063494205475,
				1.6322556734085083,
				-0.015996675938367844
			],
			"min":[
				-0.19126415252685547,
				0.9530164003372192,
				-0.16772234439849854
			],
			"type":"VEC3"
		},
		{
			"bufferView":5,
			"componentType":5126,
			"count":21268,
			"type":"VEC3"
		},
		{
			"bufferView":6,
			"componentType":5126,
			"count":21268,
			"type":"VEC2"
		},
		{
			"bufferView":7,
			"componentType":5123,
			"count":123828,
			"type":"SCALAR"
		},
		{
			"bufferView":8,
			"componentType":5126,
			"count":8738,
			"max":[
				-0.07771617919206619,
				1.6314054727554321,
				0.05305580049753189
			],
			"min":[
				-0.3516625463962555,
				1.2408922910690308,
				-0.11723355203866959
			],
			"type":"VEC3"
		},
		{
			"bufferView":9,
			"componentType":5126,
			"count":8738,
			"type":"VEC3"
		},
		{
			"bufferView":10,
			"componentType":5126,
			"count":8738,
			"type":"VEC2"
		},
		{
			"bufferView":11,
			"componentType":5123,
			"count":49836,
			"type":"SCALAR"
		},
		{
			"bufferView":12,
			"componentType":5126,
			"count":8710,
			"max":[
				0.34690576791763306,
				1.6317857503890991,
				0.054077401757240295
			],
			"min":[
				0.07763995230197906,
				1.2404142618179321,
				-0.11524245887994766
			],
			"type":"VEC3"
		},
		{
			"bufferView":13,
			"componentType":5126,
			"count":8710,
			"type":"VEC3"
		},
		{
			"bufferView":14,
			"componentType":5126,
			"count":8710,
			"type":"VEC2"
		},
		{
			"bufferView":15,
			"componentType":5123,
			"count":49668,
			"type":"SCALAR"
		},
		{
			"bufferView":16,
			"componentType":5126,
			"count":20360,
			"max":[
				0.18648184835910797,
				1.6025296449661255,
				0.1432838886976242
			],
			"min":[
				-0.18646202981472015,
				0.9542189240455627,
				-0.047115180641412735
			],
			"type":"VEC3"
		},
		{
			"bufferView":17,
			"componentType":5126,
			"count":20360,
			"type":"VEC3"
		},
		{
			"bufferView":18,
			"componentType":5126,
			"count":20360,
			"type":"VEC2"
		},
		{
			"bufferView":19,
			"componentType":5123,
			"count":118356,
			"type":"SCALAR"
		},
		{
			"bufferView":20,
			"componentType":5126,
			"count":1180,
			"max":[
				6.7424492835998535,
				8.403339385986328,
				6.7424516677856445
			],
			"min":[
				-6.742455959320068,
				-1.5787353646601332e-08,
				-6.742453575134277
			],
			"type":"VEC3"
		},
		{
			"bufferView":21,
			"componentType":5126,
			"count":1180,
			"type":"VEC3"
		},
		{
			"bufferView":22,
			"componentType":5126,
			"count":1180,
			"type":"VEC2"
		},
		{
			"bufferView":23,
			"componentType":5123,
			"count":6996,
			"type":"SCALAR"
		},
		{
			"bufferView":24,
			"componentType":5126,
			"count":62769,
			"max":[
				355.0826721191406,
				210.35665893554688,
				383.79742431640625
			],
			"min":[
				-353.3778381347656,
				-190.3651580810547,
				-385.628662109375
			],
			"type":"VEC3"
		},
		{
			"bufferView":25,
			"componentType":5126,
			"count":62769,
			"type":"VEC3"
		},
		{
			"bufferView":26,
			"componentType":5126,
			"count":62769,
			"type":"VEC2"
		},
		{
			"bufferView":27,
			"componentType":5123,
			"count":370686,
			"type":"SCALAR"
		},
		{
			"bufferView":28,
			"componentType":5126,
			"count":4,
			"max":[
				1,
				0,
				1
			],
			"min":[
				-1,
				0,
				-1
			],
			"type":"VEC3"
		},
		{
			"bufferView":29,
			"componentType":5126,
			"count":4,
			"type":"VEC3"
		},
		{
			"bufferView":30,
			"componentType":5126,
			"count":4,
			"type":"VEC2"
		},
		{
			"bufferView":31,
			"componentType":5123,
			"count":6,
			"type":"SCALAR"
		},
		{
			"bufferView":32,
			"componentType":5126,
			"count":4,
			"max":[
				1,
				0,
				1
			],
			"min":[
				-1,
				0,
				-1
			],
			"type":"VEC3"
		},
		{
			"bufferView":33,
			"componentType":5126,
			"count":4,
			"type":"VEC3"
		},
		{
			"bufferView":34,
			"componentType":5126,
			"count":4,
			"type":"VEC2"
		},
		{
			"bufferView":35,
			"componentType":5126,
			"count":4,
			"max":[
				15.693794250488281,
				0,
				15.693794250488281
			],
			"min":[
				-15.693794250488281,
				0,
				-15.693794250488281
			],
			"type":"VEC3"
		},
		{
			"bufferView":36,
			"componentType":5126,
			"count":4,
			"type":"VEC3"
		},
		{
			"bufferView":37,
			"componentType":5126,
			"count":4,
			"type":"VEC2"
		},
		{
			"bufferView":38,
			"componentType":5126,
			"count":193,
			"max":[
				8
			],
			"min":[
				0
			],
			"type":"SCALAR"
		},
		{
			"bufferView":39,
			"componentType":5126,
			"count":193,
			"type":"VEC4"
		}
	],
	"bufferViews":[
		{
			"buffer":0,
			"byteLength":18708,
			"byteOffset":0,
			"target":34962
		},
		{
			"buffer":0,
			"byteLength":18708,
			"byteOffset":18708,
			"target":34962
		},
		{
			"buffer":0,
			"byteLength":12472,
			"byteOffset":37416,
			"target":34962
		},
		{
			"buffer":0,
			"byteLength":14532,
			"byteOffset":49888,
			"target":34963
		},
		{
			"buffer":0,
			"byteLength":255216,
			"byteOffset":64420,
			"target":34962
		},
		{
			"buffer":0,
			"byteLength":255216,
			"byteOffset":319636,
			"target":34962
		},
		{
			"buffer":0,
			"byteLength":170144,
			"byteOffset":574852,
			"target":34962
		},
		{
			"buffer":0,
			"byteLength":247656,
			"byteOffset":744996,
			"target":34963
		},
		{
			"buffer":0,
			"byteLength":104856,
			"byteOffset":992652,
			"target":34962
		},
		{
			"buffer":0,
			"byteLength":104856,
			"byteOffset":1097508,
			"target":34962
		},
		{
			"buffer":0,
			"byteLength":69904,
			"byteOffset":1202364,
			"target":34962
		},
		{
			"buffer":0,
			"byteLength":99672,
			"byteOffset":1272268,
			"target":34963
		},
		{
			"buffer":0,
			"byteLength":104520,
			"byteOffset":1371940,
			"target":34962
		},
		{
			"buffer":0,
			"byteLength":104520,
			"byteOffset":1476460,
			"target":34962
		},
		{
			"buffer":0,
			"byteLength":69680,
			"byteOffset":1580980,
			"target":34962
		},
		{
			"buffer":0,
			"byteLength":99336,
			"byteOffset":1650660,
			"target":34963
		},
		{
			"buffer":0,
			"byteLength":244320,
			"byteOffset":1749996,
			"target":34962
		},
		{
			"buffer":0,
			"byteLength":244320,
			"byteOffset":1994316,
			"target":34962
		},
		{
			"buffer":0,
			"byteLength":162880,
			"byteOffset":2238636,
			"target":34962
		},
		{
			"buffer":0,
			"byteLength":236712,
			"byteOffset":2401516,
			"target":34963
		},
		{
			"buffer":0,
			"byteLength":14160,
			"byteOffset":2638228,
			"target":34962
		},
		{
			"buffer":0,
			"byteLength":14160,
			"byteOffset":2652388,
			"target":34962
		},
		{
			"buffer":0,
			"byteLength":9440,
			"byteOffset":2666548,
			"target":34962
		},
		{
			"buffer":0,
			"byteLength":13992,
			"byteOffset":2675988,
			"target":34963
		},
		{
			"buffer":0,
			"byteLength":753228,
			"byteOffset":2689980,
			"target":34962
		},
		{
			"buffer":0,
			"byteLength":753228,
			"byteOffset":3443208,
			"target":34962
		},
		{
			"buffer":0,
			"byteLength":502152,
			"byteOffset":4196436,
			"target":34962
		},
		{
			"buffer":0,
			"byteLength":741372,
			"byteOffset":4698588,
			"target":34963
		},
		{
			"buffer":0,
			"byteLength":48,
			"byteOffset":5439960,
			"target":34962
		},
		{
			"buffer":0,
			"byteLength":48,
			"byteOffset":5440008,
			"target":34962
		},
		{
			"buffer":0,
			"byteLength":32,
			"byteOffset":5440056,
			"target":34962
		},
		{
			"buffer":0,
			"byteLength":12,
			"byteOffset":5440088,
			"target":34963
		},
		{
			"buffer":0,
			"byteLength":48,
			"byteOffset":5440100,
			"target":34962
		},
		{
			"buffer":0,
			"byteLength":48,
			"byteOffset":5440148,
			"target":34962
		},
		{
			"buffer":0,
			"byteLength":32,
			"byteOffset":5440196,
			"target":34962
		},
		{
			"buffer":0,
			"byteLength":48,
			"byteOffset":5440228,
			"target":34962
		},
		{
			"buffer":0,
			"byteLength":48,
			"byteOffset":5440276,
			"target":34962
		},
		{
			"buffer":0,
			"byteLength":32,
			"byteOffset":5440324,
			"target":34962
		},
		{
			"buffer":0,
			"byteLength":772,
			"byteOffset":5440356
		},
		{
			"buffer":0,
			"byteLength":3088,
			"byteOffset":5441128
		}
	],
	"samplers":[
		{
			"magFilter":9729,
			"minFilter":9987
		}
	],
	"buffers":[
		{
			"byteLength":5444216,
			"uri":"Oversize2.bin"
		}
	]
}
